<?xml version="1.0" encoding="utf-8"?>
<!-- Generator: Adobe Illustrator 15.0.2, SVG Export Plug-In . SVG Version: 6.00 Build 0)  -->
<!DOCTYPE svg PUBLIC "-//W3C//DTD SVG 1.1//EN" "http://www.w3.org/Graphics/SVG/1.1/DTD/svg11.dtd">
<svg version="1.1" id="Шар_1" xmlns="http://www.w3.org/2000/svg" xmlns:xlink="http://www.w3.org/1999/xlink" x="0px" y="0px"
	 width="20px" height="20px" viewBox="0 0 20 20" enable-background="new 0 0 20 20" xml:space="preserve">
<g>
	<path fill="#D66244" d="M9.998,13.39v3.753c-0.003,0-0.007-0.125-0.01-0.125c-3.408,0-7.157-3.072-7.173-7.022h-1.84
		c0.015,4.967,4.044,8.989,9.014,8.989c0,0,0.038-5.594,0.018-5.594C10.003,13.391,10.001,13.39,9.998,13.39z"/>
	<path fill="#D66244" d="M9.994,0.953v5.595c0.004,0,0.008-0.001,0.012-0.001c0,0,0,0,0.001,0V2.796
		c3.953,0.014,7.155,4.19,7.155,7.173h1.842C19.004,4.991,14.971,0.956,9.994,0.953z"/>
	<g>
		<path fill="#4D82B8" d="M7.279,9.969c0-0.317,0.065-0.617,0.164-0.9l-4.06-1.904c-0.366,0.861-0.57,1.809-0.57,2.804
			c0,0.009,0.001,0.017,0.001,0.026c0.017,3.95,3.766,7.022,7.173,7.022c0.003,0,0.007,0.125,0.01,0.125V13.39v-0.698
			C8.496,12.689,7.279,11.471,7.279,9.969z"/>
		<path fill="#4D82B8" d="M10.007,2.796v3.751v0.699c1.501,0.003,2.718,1.221,2.718,2.723c0,0.01-0.002,0.02-0.002,0.031h4.437
			c0-0.01,0.003-0.021,0.003-0.031C17.162,6.986,13.96,2.81,10.007,2.796z"/>
	</g>
</g>
<path fill="#EAC282" d="M13.428,9.969c0,1.89-1.531,3.421-3.422,3.421c0.02,0-0.018,5.594-0.018,5.594
	c4.981,0,9.016-4.037,9.016-9.015H13.428z"/>
</svg>
